<?xml version="1.0" encoding="utf-8"?>
<!-- Generator: Adobe Illustrator 23.0.3, SVG Export Plug-In . SVG Version: 6.00 Build 0)  -->
<svg version="1.1" id="Слой_1" xmlns="http://www.w3.org/2000/svg" xmlns:xlink="http://www.w3.org/1999/xlink" x="0px" y="0px"
	 viewBox="0 0 46 57" style="enable-background:new 0 0 46 57;" xml:space="preserve">
<style type="text/css">
	.st0{fill:#0F5A47;}
	.st1{fill:#FFFFFF;}
</style>
<g>
	<path class="st0" d="M23,0C15,0,0,6,0,23s23,34,23,34s23-17,23-34S31,0,23,0z"/>
	<g>
		<path class="st1" d="M8.8,17.5c0-1.3,0.4-2.5,1.3-3.4c0.9-0.9,2-1.3,3.3-1.3c1.4,0,2.5,0.4,3.4,1.2l-0.6,1
			c-0.3-0.3-0.7-0.5-1.2-0.7s-1-0.3-1.4-0.3c-1,0-1.9,0.3-2.5,1c-0.6,0.7-0.9,1.5-0.9,2.5c0,1,0.3,1.9,0.9,2.6s1.5,1.1,2.5,1.1
			c0.5,0,1-0.1,1.5-0.3c0.5-0.2,0.9-0.5,1.3-0.9l0.7,0.9c-1,1-2.2,1.5-3.5,1.5s-2.5-0.5-3.4-1.4C9.2,20,8.8,18.8,8.8,17.5z"/>
		<path class="st1" d="M18.6,22.1v-9.2h1.3v4h4.8v-4H26v9.2h-1.3v-4h-4.8v4H18.6z"/>
		<path class="st1" d="M27.8,17.4c0-1.3,0.4-2.4,1.3-3.3c0.9-0.9,2-1.3,3.4-1.3c1.4,0,2.5,0.4,3.4,1.3c0.9,0.9,1.3,2,1.3,3.3
			c0,1.4-0.4,2.5-1.3,3.4s-2,1.4-3.4,1.4c-1.4,0-2.5-0.5-3.4-1.4C28.3,19.9,27.8,18.8,27.8,17.4z M29.1,17.4c0,1,0.3,1.9,1,2.6
			s1.5,1,2.4,1c1,0,1.8-0.3,2.4-1c0.6-0.7,1-1.6,1-2.6c0-1-0.3-1.8-1-2.5c-0.6-0.7-1.4-1-2.4-1c-1,0-1.8,0.3-2.4,1
			C29.5,15.6,29.1,16.4,29.1,17.4z"/>
		<path class="st1" d="M9.2,29.5c0-1.3,0.4-2.5,1.3-3.4c0.9-0.9,2-1.3,3.3-1.3c1.4,0,2.5,0.4,3.4,1.2l-0.6,1
			c-0.3-0.3-0.7-0.5-1.2-0.7s-1-0.3-1.4-0.3c-1,0-1.9,0.3-2.5,1c-0.6,0.7-0.9,1.5-0.9,2.5c0,1,0.3,1.9,0.9,2.6s1.5,1.1,2.5,1.1
			c0.5,0,1-0.1,1.5-0.3c0.5-0.2,0.9-0.5,1.3-0.9l0.7,0.9c-1,1-2.2,1.5-3.5,1.5s-2.5-0.5-3.4-1.4C9.6,32,9.2,30.8,9.2,29.5z"/>
		<path class="st1" d="M18.3,29.5c0-1.3,0.4-2.5,1.3-3.4c0.9-0.9,2-1.3,3.3-1.3c1.4,0,2.5,0.4,3.4,1.2l-0.7,1
			c-0.3-0.3-0.7-0.5-1.2-0.7s-1-0.3-1.4-0.3c-1,0-1.9,0.3-2.5,1c-0.6,0.7-0.9,1.5-0.9,2.5c0,1,0.3,1.9,0.9,2.6s1.5,1.1,2.5,1.1
			c0.5,0,1-0.1,1.5-0.3c0.5-0.2,0.9-0.5,1.3-0.9l0.7,0.9c-1,1-2.2,1.5-3.5,1.5c-1.4,0-2.5-0.5-3.4-1.4C18.7,32,18.3,30.8,18.3,29.5z
			"/>
		<path class="st1" d="M27.4,29.4c0-1.3,0.4-2.4,1.3-3.3c0.9-0.9,2-1.3,3.4-1.3c1.4,0,2.5,0.4,3.4,1.3c0.9,0.9,1.3,2,1.3,3.3
			c0,1.4-0.4,2.5-1.3,3.4s-2,1.4-3.4,1.4c-1.4,0-2.5-0.5-3.4-1.4C27.8,31.9,27.4,30.8,27.4,29.4z M28.7,29.4c0,1,0.3,1.9,1,2.6
			s1.5,1,2.4,1c1,0,1.8-0.3,2.4-1c0.6-0.7,1-1.6,1-2.6c0-1-0.3-1.8-1-2.5c-0.6-0.7-1.4-1-2.4-1c-1,0-1.8,0.3-2.4,1
			C29,27.6,28.7,28.4,28.7,29.4z"/>
	</g>
</g>
</svg>
